<?xml version="1.0" standalone="no"?>
<!DOCTYPE svg PUBLIC "-//W3C//DTD SVG 20010904//EN"
 "http://www.w3.org/TR/2001/REC-SVG-20010904/DTD/svg10.dtd">
<svg version="1.0" xmlns="http://www.w3.org/2000/svg"
 width="500.000000pt" height="500.000000pt" viewBox="0 0 500.000000 500.000000"
 preserveAspectRatio="xMidYMid meet">
<metadata>
Created by potrace 1.14, written by Peter Selinger 2001-2017
</metadata>
<g transform="translate(0.000000,500.000000) scale(0.100000,-0.100000)"
fill="#000000" stroke="none">
<path d="M2311 3515 c-107 -24 -192 -55 -281 -103 -156 -83 -365 -318 -412
-463 -6 -19 -17 -47 -24 -64 -57 -128 -60 -468 -5 -650 17 -56 79 -180 117
-235 l39 -55 -2 -160 c-1 -88 -6 -254 -10 -370 -5 -115 -8 -211 -8 -213 1 -1
42 27 91 63 49 36 127 92 174 125 47 33 112 81 145 105 33 24 83 57 112 73
l52 30 154 -6 c124 -4 169 -1 233 13 110 24 226 68 305 115 95 56 266 223 319
310 162 267 189 605 74 898 -38 95 -146 252 -227 329 -68 64 -190 149 -274
192 -23 11 -81 33 -130 47 -73 22 -112 27 -233 30 -102 3 -164 -1 -209 -11z"/>
</g>
</svg>
